<?xml version="1.0" encoding="UTF-8" standalone="no"?>

<svg
   width="64mm"
   height="64mm"
   viewBox="0 0 64 64"
   version="1.1"
   id="svg1"
   xml:space="preserve"
   inkscape:version="1.3.2 (091e20ef0f, 2023-11-25)"
   sodipodi:docname="logo.svg"
   xmlns:inkscape="http://www.inkscape.org/namespaces/inkscape"
   xmlns:sodipodi="http://sodipodi.sourceforge.net/DTD/sodipodi-0.dtd"
   xmlns="http://www.w3.org/2000/svg"
   xmlns:svg="http://www.w3.org/2000/svg"><sodipodi:namedview
     id="namedview1"
     pagecolor="#ffffff"
     bordercolor="#111111"
     borderopacity="1"
     inkscape:showpageshadow="0"
     inkscape:pageopacity="0"
     inkscape:pagecheckerboard="1"
     inkscape:deskcolor="#d1d1d1"
     inkscape:document-units="mm"
     inkscape:zoom="3.0146465"
     inkscape:cx="128.53912"
     inkscape:cy="123.06584"
     inkscape:window-width="1920"
     inkscape:window-height="1052"
     inkscape:window-x="0"
     inkscape:window-y="0"
     inkscape:window-maximized="1"
     inkscape:current-layer="layer3" /><defs
     id="defs1" /><g
     inkscape:groupmode="layer"
     id="layer2"
     inkscape:label="Circle"
     style="display:inline"><circle
       style="opacity:1;fill:#070f12;fill-opacity:1;stroke-width:0.361531"
       id="path1"
       cx="32"
       cy="32"
       r="32" /></g><g
     inkscape:groupmode="layer"
     id="layer3"
     inkscape:label="jf"
     transform="translate(0.1478939,-0.56357591)"><path
       style="font-size:35.2778px;font-family:Yellowtail;-inkscape-font-specification:Yellowtail;fill:#f4fafb;stroke-width:0.264583"
       d="m 30.103719,34.467403 q 0.637343,-0.310059 1.774225,-0.757922 1.154108,-0.465088 1.464167,-0.465088 0.223931,0 0.223931,0.241157 0,0.241157 -0.120578,0.499539 -0.120579,0.258382 -0.258383,0.447863 -0.120578,0.18948 -0.327284,0.465088 l -0.258382,0.34451 q -0.826824,1.171333 -2.377118,1.94648 -0.53399,0.275608 -1.550294,0.72347 -0.999078,0.447863 -1.395264,0.654569 l -0.912951,1.378039 q -2.911108,4.306372 -4.874814,6.459558 -1.94648,2.153187 -3.617352,3.117814 -1.653647,0.964627 -3.85851,0.964627 -1.06798,0 -1.619196,-0.930176 -0.53399,-0.912951 -0.53399,-2.067059 0,-1.136882 0.706245,-2.359892 0.723471,-1.223009 1.980931,-2.342666 1.257461,-1.102432 2.6355,-2.10151 1.378039,-0.981853 3.048912,-1.912029 2.704402,-1.464167 5.253774,-2.6355 6.270078,-9.232862 12.729636,-17.897283 0.137804,-0.137804 0.137804,-0.206706 0,-0.0689 -0.516764,-0.0689 -0.516765,0 -2.308216,0.34451 -3.910186,0.792372 -7.768696,2.876657 -3.858509,2.067058 -6.614587,4.754235 -2.756079,2.66995 -2.756079,4.340823 0,0.844049 0.723471,1.395264 0.72347,0.533991 1.550294,0.533991 0.844049,0 1.722549,-0.413412 0.895725,-0.430637 1.481392,-0.844049 0.585667,-0.430637 0.671794,-0.430637 0.08613,0 0.08613,0.241156 0,1.257461 -0.671794,2.170412 -0.654568,0.895725 -1.825901,1.343588 -1.171334,0.447863 -2.25654,0.447863 -1.06798,0 -2.187637,-0.447863 -1.119656,-0.447863 -1.912029,-1.395264 -0.775147,-0.947402 -0.775147,-2.153187 0,-0.516764 0.223931,-1.223009 1.705324,-5.546608 11.144892,-10.697029 3.238392,-1.757 7.234705,-2.82498 4.013539,-1.085206 7.579215,-1.085206 0.654569,0 1.136883,0.413412 0.482313,0.413412 0.482313,0.8785 0,0.465088 -0.0689,0.654568 -0.0689,0.189481 -0.620117,0.981853 -0.551216,0.792373 -1.119657,1.533069 -1.567519,2.032607 -2.669951,3.496774 -1.102431,1.464167 -8.216558,11.60998 z m -7.303607,5.753313 q -8.474941,5.253774 -8.474941,7.027999 0,0.378961 0.585667,0.378961 0.602892,0 1.567519,-0.602892 0.964628,-0.602892 1.808676,-1.41249 0.861275,-0.809598 1.825902,-1.94648 1.395265,-1.653647 2.687177,-3.445098 z m 11.79946,-5.64996 -0.137804,-0.482314 q 0,-0.137804 0.137804,-0.223932 0.137804,-0.103352 0.344509,-0.396186 0.223932,-0.292833 0.310059,-0.378961 0.103353,-0.08613 0.275608,-0.241156 0.18948,-0.172255 0.310059,-0.275608 0.34451,-0.292834 0.482314,-0.327285 0.137803,-0.05168 0.482313,-0.155029 1.067981,-0.34451 1.808677,-0.482314 4.392499,-7.338058 7.045225,-11.472175 2.66995,-4.151343 3.031686,-4.58198 0.37896,-0.447863 1.326362,-0.792373 0.947402,-0.34451 1.378039,-0.327284 0.447863,0 0.447863,0.378961 0,0.155029 -0.120578,0.413411 -0.103353,0.258383 -1.877579,3.048912 -6.562911,10.283617 -8.406038,13.332528 l 0.430637,0.15503 q 3.996313,-0.740696 4.151343,-0.740696 0.172255,0 0.826823,0.241157 0.671794,0.223931 0.8785,0.258382 0.396186,0.0689 0.396186,0.654569 0,0.568441 -0.361735,0.637343 -0.292833,0.05168 -1.41249,0.344509 -1.102431,0.275608 -1.774225,0.430638 0.912951,1.085205 0.912951,2.308215 0,1.22301 -1.085206,3.238392 -1.085206,1.998157 -2.773304,3.961863 -1.688098,1.963705 -3.548451,3.70348 -1.843127,1.739774 -3.54845,2.807754 -1.705324,1.085206 -2.514922,1.085206 -0.826823,0 -1.464166,-0.447862 -0.654569,-0.430638 -0.654569,-1.291912 0,-0.861275 0.361735,-2.015382 0.34451,-1.136883 0.757922,-2.10151 0.413412,-0.947402 1.41249,-2.738853 1.06798,-1.929255 3.85851,-6.597362 -0.482314,0.08613 -0.740696,0.08613 -0.258383,0 -0.482314,-0.120578 -0.223932,-0.120578 -0.310059,-0.310059 -0.155029,-0.34451 -0.155029,-0.585666 z m 4.840362,7.424185 q 1.291912,-1.498617 2.170412,-3.135039 0.8785,-1.653647 0.8785,-2.687176 0,-1.050755 -1.016304,-1.843127 l -1.91203,0.430637 q -0.292833,0.482314 -0.91295,1.533068 -0.602893,1.03353 -0.999079,1.688098 -0.378961,0.654569 -0.981853,1.688098 -0.602892,1.03353 -1.016304,1.739775 -0.396186,0.706245 -0.895725,1.584745 -0.482314,0.895725 -0.792372,1.515843 -0.327285,0.637343 -0.620118,1.25746 -0.568441,1.205785 -0.568441,1.56752 0,0.361735 0.18948,0.361735 0.34451,0 1.429716,-0.792372 1.06798,-0.775147 2.411568,-2.10151 1.360814,-1.309137 2.6355,-2.807755 z"
       id="text3"
       aria-label="Jf" /></g></svg>
