<?xml version="1.0" encoding="UTF-8" standalone="no"?>

<svg
   version="1.1"
   x="0px"
   y="0px"
   viewBox="0 0 600 600"
   xml:space="preserve"
   id="svg67"
   sodipodi:docname="6572420_3301603.svg"
   inkscape:version="1.3.2 (091e20ef0f, 2023-11-25)"
   width="600"
   height="600"
   xmlns:inkscape="http://www.inkscape.org/namespaces/inkscape"
   xmlns:sodipodi="http://sodipodi.sourceforge.net/DTD/sodipodi-0.dtd"
   xmlns:xlink="http://www.w3.org/1999/xlink"
   xmlns="http://www.w3.org/2000/svg"
   xmlns:svg="http://www.w3.org/2000/svg"><defs
   id="defs67" /><sodipodi:namedview
   id="namedview67"
   pagecolor="#ffffff"
   bordercolor="#111111"
   borderopacity="1"
   inkscape:showpageshadow="0"
   inkscape:pageopacity="0"
   inkscape:pagecheckerboard="1"
   inkscape:deskcolor="#d1d1d1"
   inkscape:zoom="1.1964247"
   inkscape:cx="200.59766"
   inkscape:cy="263.28443"
   inkscape:window-width="1920"
   inkscape:window-height="1052"
   inkscape:window-x="0"
   inkscape:window-y="0"
   inkscape:window-maximized="1"
   inkscape:current-layer="svg67" />






<g
   id="g1"
   transform="matrix(1.3020353,0,0,1.3020353,-27.375353,-86.833714)"><g
     inkscape:groupmode="layer"
     id="layer1"
     inkscape:label="Background"><path
       style="opacity:0.6;fill:#52a4b7;fill-opacity:1"
       d="m 60.122082,194.55988 c 0,0 -39.644283,38.79239 -25.850049,123.52477 13.794234,84.73238 28.696625,54.07108 80.290527,101.13077 26.55757,24.22363 87.29789,36.92456 146.14038,33.02305 66.2608,-4.39338 56.78678,-32.68335 164.05096,-42.25768 54.15292,-4.83365 67.79837,-210.28877 5.77857,-217.44561 -62.0198,-7.15684 -97.93098,44.6887 -175.99826,-20.49396 C 176.46692,106.85856 88.698655,160.25091 60.122082,194.55988 Z"
       id="path67"
       sodipodi:nodetypes="cssssssc" /></g><g
     id="Chair"
     style="display:inline">
	<path
   style="fill:#263238;fill-opacity:1;stroke:#263238;stroke-linecap:round;stroke-linejoin:round;stroke-miterlimit:10"
   d="m 88.503768,406.276 c 0,0 -0.600399,-70.33429 -19.02196,-133.13228 -6.793653,-23.15915 20.197916,-26.67154 59.197912,-29.67154 39,-3 62.68623,6.62221 71.18623,12.12221 8.5,5.5 5.40805,76.11761 11.13405,99.18161 5.726,23.064 10,53 10,53 z"
   id="path18"
   sodipodi:nodetypes="csssscc" />
</g><g
     id="Plants">
	<path
   style="fill:#263238"
   d="m 424.271,327.546 c -5.356,6.695 -7.972,10.42 -9.097,12.118 1.065,-5.806 2.917,-13.042 6.104,-21.596 2.073,-5.564 3.242,-11.22 3.724,-16.879 -0.26,0.141 -0.438,0.236 -0.498,0.267 l -0.467,-0.885 c 0.184,-0.097 18.42,-9.777 23.58,-18.907 l 0.871,0.492 c -4.662,8.247 -19.059,16.591 -23,18.766 3.743,-0.357 15.419,-2.137 22.366,-10.719 8.353,-10.318 6.879,-23.094 6.879,-23.094 0,0 -15.723,10.81 -22.111,19.163 -4.062,5.311 -6.331,9.82 -7.448,12.405 0.34,-6.835 -0.294,-13.655 -1.548,-20.307 5.248,-4.128 24.564,-20.021 26.685,-31.897 2.457,-13.758 -0.983,-37.343 -0.983,-37.343 0,0 -2.457,6.387 -6.879,14.249 -4.422,7.862 -18.18,20.145 -20.637,33.412 -0.686,3.705 -0.942,7.088 -0.967,10.062 -2.248,-7.722 -5.098,-15.066 -7.941,-21.754 -0.775,-1.826 -1.436,-3.795 -1.966,-5.855 v 0 l -0.43,-0.255 c 0.09,-0.15 8.944,-15.092 8.944,-19.384 h 1 c 0,4.02 -6.758,15.904 -8.623,19.107 3.091,-1.862 8.123,-5.671 10.021,-11.592 2.819,-8.794 -1.354,-16.708 -1.354,-16.708 0,0 -7.474,10.969 -9.513,17.994 -1.282,4.416 -1.626,7.885 -1.704,9.856 -1.427,-3.64 -3.624,-8.582 -6.139,-11.936 -4.422,-5.896 -7.37,-14.741 -7.37,-14.741 0,0 -5.405,9.336 -1.474,19.163 3.228,8.07 12.416,11.168 15.6,12.018 0.356,1.072 0.744,2.114 1.169,3.114 3.867,9.098 7.752,19.422 10.067,30.24 -2.295,-3.052 -6.614,-8.418 -10.704,-11.42 -5.942,-4.361 -11.327,-11.971 -11.327,-11.971 0,0 -2.466,10.502 4.144,18.767 5.401,6.753 15.021,7.086 18.364,6.982 2.272,11.897 2.526,24.321 -1.324,36.323 -0.249,-2.331 -1.65,-8.672 -9.364,-15.767 -9.738,-8.956 -20.28675,-19.57257 -20.28675,-19.57257 0,0 -2.20751,12.08146 7.13049,23.19746 8.555,10.184 19.53826,13.29211 22.19126,13.12111 -0.18,0.53 -0.358,1.06 -0.555,1.589 -6.157,16.525 -7.453,28.119 -7.601,34.252 h -11.607 v 53.557 h 31.938 v -53.557 h -18.304 c 0.07,-2.52 0.343,-6.021 1.078,-10.425 -0.197,0.059 -0.316,0.093 -0.33,0.097 l -0.266,-0.965 c 0.2,-0.055 20.21,-5.694 34.198,-20.083 l 0.717,0.697 c -11.291,11.614 -26.426,17.593 -32.234,19.579 5.774,-0.717 19.887,-2.84 26.442,-7.081 8.353,-5.405 15.723,-21.62 15.723,-21.62 0,0 -27.022,5.899 -34.884,15.726 z m -15.197,-87.021 c -0.103,-0.047 -10.354,-4.832 -12.819,-17.156 l 0.98,-0.196 c 2.366,11.828 12.154,16.397 12.253,16.442 z m 14.14,38.161 -0.226,0.342 -0.38,-0.154 c -0.554,-0.225 -13.629,-5.605 -18.946,-13.378 l 0.826,-0.564 c 4.654,6.804 15.912,11.904 18.119,12.856 1.692,-2.595 12.317,-19.078 16.018,-29.438 l 0.941,0.336 c -4.046,11.328 -16.229,29.816 -16.352,30 z m -4.39818,36.46662 c -0.156,-0.058 -7.80743,-2.43091 -15.95046,-15.21018 l 0.90054,-0.0996 c 7.83891,12.11696 14.9881,14.52614 15.1411,14.58214 z"
   id="path19"
   sodipodi:nodetypes="ccscccccccccccccscccscccccsccccccccccccccccscccccccccccccccccccccccccccccccccccc" />
</g><g
     id="Character"
     style="display:inline">
	<g
   id="g61">
		<g
   id="g22">
			<defs
   id="defs19">
				<path
   id="XMLID_6_"
   d="m 200.488,270.205 c 0,0 -28.51,6.048 -52.269,19.439 -23.758,13.391 -42.333,24.19 -42.333,29.374 0,5.184 -9.503,87.258 -9.503,87.258 h 215.986 c 0,0 -21.167,-45.357 -24.622,-64.796 -3.456,-19.439 -7.344,-31.966 -18.575,-44.493 -11.231,-12.527 -44.061,-28.51 -68.684,-26.782 z" />
			</defs>
			<path
   id="use19"
   d="m 200.488,270.205 c 0,0 -28.51,6.048 -52.269,19.439 -23.758,13.391 -39.3882,27.3787 -40.10082,32.51349 C 107.34911,327.69904 96.383,406.276 96.383,406.276 h 215.986 c 0,0 -21.167,-45.357 -24.622,-64.796 -3.456,-19.439 -7.344,-31.966 -18.575,-44.493 -11.231,-12.527 -44.061,-28.51 -68.684,-26.782 z"
   style="display:inline;fill:#ffffff"
   sodipodi:nodetypes="ccscccsc" />
			<clipPath
   id="XMLID_00000166634079954502855500000014985385509947900547_">
				<use
   xlink:href="#XMLID_6_"
   style="overflow:visible"
   id="use20" />
			</clipPath>
			<path
   style="display:inline;fill:#9a9dd5;fill-opacity:1"
   d="m 116.74292,348.95533 c 3.198,-2.284 9.73583,13.85399 11.56283,9.74199 -0.19554,-4.4785 -13.24761,-25.67189 -12.82486,-33.02667 0.36961,-6.4304 8.94178,-13.17767 20.0913,-18.04536 12.47782,-5.4476 16.09655,-4.82074 18.50044,2.1402 2.98286,8.63745 1.71907,24.47311 4.91707,17.61911 2.86671,-6.05016 11.2173,-13.6686 11.6733,-1.7896 2.05286,11.2066 0,23.758 1.371,23.758 1.371,0 13.707,-12.793 16.905,-19.189 3.198,-6.397 -3.655,-22.845 -3.655,-30.155 0,-7.31 6.396,-17.362 6.396,-17.362 l 0.408,-10.342 c -10.227,2.795 -28.092,8.446 -43.87,17.339 -23.758,13.391 -39.45135,27.40796 -40.17651,32.54099 C 107.21322,328.04789 96.382,406.276 96.382,406.276 H 108.2 c 2.201,-20.346 6.28192,-55.70567 8.54292,-57.32067 z"
   clip-path="url(#XMLID_00000166634079954502855500000014985385509947900547_)"
   id="path20"
   sodipodi:nodetypes="ccsssccscscccsccc" />
			<path
   style="display:inline;opacity:0.5;fill:#ffffff"
   d="m 116.751,349.353 c 3.198,-2.284 9.595,15.077 11.422,10.965 1.828,-4.112 -11.422,-24.672 -12.336,-31.982 -0.914,-7.31 7.767,-8.224 17.819,-15.077 10.052,-6.853 19.189,-12.336 19.189,-3.198 0,9.138 4.112,26.043 7.31,19.189 3.198,-6.853 10.052,-15.534 10.508,-3.655 0.457,11.879 0,23.758 1.371,23.758 1.371,0 13.707,-12.793 16.905,-19.189 3.198,-6.397 -3.655,-22.845 -3.655,-30.155 0,-7.31 6.396,-17.362 6.396,-17.362 l 0.408,-10.342 c -10.227,2.795 -28.092,8.446 -43.87,17.339 -23.758,13.391 -39.32207,26.91061 -40.07938,32.039 -0.71604,4.84894 -11.75662,84.593 -11.75662,84.593 H 108.2 c 2.201,-20.346 6.29,-55.308 8.551,-56.923 z"
   clip-path="url(#XMLID_00000166634079954502855500000014985385509947900547_)"
   id="path21"
   sodipodi:nodetypes="ccsssccscscccsccc" />
			
				<path
   style="display:inline;fill:#263238;stroke:#263238;stroke-linecap:round;stroke-linejoin:round;stroke-miterlimit:10"
   d="m 254.426,290.367 c 0,0 15.002,7.334 20.669,14.669 0,0 -5.667,-11.335 -19.669,-18.002 z"
   clip-path="url(#XMLID_00000166634079954502855500000014985385509947900547_)"
   id="path22" />
			
				<path
   id="use22"
   d="m 200.488,270.205 c 0,0 -28.51,6.048 -52.269,19.439 -23.758,13.391 -35.54399,22.59175 -39.66899,30.7441 C 106.20953,325.01368 96.383,406.276 96.383,406.276 h 215.986 c 0,0 -21.167,-45.357 -24.622,-64.796 -3.456,-19.439 -7.344,-31.966 -18.575,-44.493 -11.231,-12.527 -44.061,-28.51 -68.684,-26.782 z"
   style="display:inline;fill:none;stroke:#263238;stroke-linecap:round;stroke-linejoin:round;stroke-miterlimit:10"
   sodipodi:nodetypes="ccscccsc" />
		</g>
		<g
   id="g35"
   style="display:inline">
			<g
   id="g25"
   style="display:inline">
				<defs
   id="defs22">
					<path
   id="XMLID_5_"
   d="m 190.985,273.228 c 0,0 -12.527,6.912 -13.391,22.463 -0.864,15.551 0,31.534 -0.864,40.173 -0.864,8.639 -6.911,15.551 -2.16,15.119 4.752,-0.432 15.551,-17.711 19.439,-17.711 3.888,0 5.184,8.207 6.912,10.799 1.728,2.592 7.795,3.679 7.795,3.679 0,0 5.596,-6.703 5.596,-8.862 0,-2.16 -1.728,-9.503 3.024,-8.639 4.752,0.864 15.119,17.279 15.551,12.095 0.432,-5.184 -4.752,-12.959 -4.752,-25.486 0,-12.527 -6.048,-27.214 -14.687,-36.286 -8.64,-9.071 -13.61,-8.014 -22.463,-7.344 z" />
				</defs>
				<use
   xlink:href="#XMLID_5_"
   style="overflow:visible;fill:#ffffff"
   id="use23" />
				<clipPath
   id="XMLID_00000181793234554792409020000008124246028664678042_">
					<use
   xlink:href="#XMLID_5_"
   style="overflow:visible"
   id="use24" />
				</clipPath>
				<path
   style="display:inline;fill:#9a9dd5;fill-opacity:1"
   d="m 192.057,273.145 c -0.352,0.028 -0.707,0.056 -1.072,0.084 0,0 -12.527,6.912 -13.391,22.463 -0.864,15.551 0,31.534 -0.864,40.173 -0.555,5.556 -3.251,10.393 -3.844,13.026 3.175,-2.331 13.214,-13.047 16.054,-18.727 3.198,-6.397 -3.655,-22.845 -3.655,-30.155 0,-7.31 6.396,-17.362 6.396,-17.362 z"
   clip-path="url(#XMLID_00000181793234554792409020000008124246028664678042_)"
   id="path24" />
				<path
   style="display:inline;opacity:0.5;fill:#ffffff"
   d="m 192.057,273.145 c -0.352,0.028 -0.707,0.056 -1.072,0.084 0,0 -12.527,6.912 -13.391,22.463 -0.864,15.551 0,31.534 -0.864,40.173 -0.555,5.556 -3.251,10.393 -3.844,13.026 3.175,-2.331 13.214,-13.047 16.054,-18.727 3.198,-6.397 -3.655,-22.845 -3.655,-30.155 0,-7.31 6.396,-17.362 6.396,-17.362 z"
   clip-path="url(#XMLID_00000181793234554792409020000008124246028664678042_)"
   id="path25" />
				
					<path
   id="use25"
   d="m 190.985,273.228 c -20.99468,21.34798 -6.49363,28.3479 -18.89349,76.03356 5.87391,-4.53888 15.73628,-14.11753 19.62428,-14.11753 7.12235,0 4.56458,10.21253 17.00021,12.60597 0,0 2.86451,-4.50245 5.596,-8.862 2.29512,-3.66308 3.46821,-7.56834 6.51123,-5.98173 4.28273,2.23298 6.07021,2.84815 12.06377,9.43773 0.19883,-13.93208 -3.39566,-16.81735 -4.752,-25.486 -1.93647,-12.37642 -6.048,-27.214 -14.687,-36.286 -8.64,-9.071 -13.61,-8.014 -22.463,-7.344 z"
   style="fill:none;stroke:#263238;stroke-linecap:round;stroke-linejoin:round;stroke-miterlimit:10"
   sodipodi:nodetypes="ccscsscscc" />
			</g>
			<g
   id="g29"
   style="display:inline">
				<defs
   id="defs25">
					<path
   id="XMLID_4_"
   d="m 194.587,273.344 c 0,0 -5.18,11.302 -5.18,24.959 0,13.657 7.064,27.785 9.89,34.378 2.826,6.593 9.419,15.07 9.419,15.07 0,0 -0.471,-17.424 3.768,-25.901 4.238,-8.477 8.006,-14.599 8.006,-14.599 0,0 -5.18,-5.18 -12.715,-16.953 -7.537,-11.774 -13.188,-16.954 -13.188,-16.954 z" />
				</defs>
				<use
   xlink:href="#XMLID_4_"
   style="display:inline;overflow:visible;fill:#ffffff"
   id="use26" />
				<clipPath
   id="XMLID_00000029728806880454236400000000900009255084311484_">
					<use
   xlink:href="#XMLID_4_"
   style="overflow:visible"
   id="use27" />
				</clipPath>
				<path
   style="display:inline;fill:#9a9dd5;fill-opacity:1"
   d="m 217.213,312.904 -1.776,-11.644 c -2.071,-2.683 -4.678,-6.297 -7.664,-10.963 -7.535,-11.773 -13.186,-16.953 -13.186,-16.953 0,0 -8.66365,3.6674 -4.44585,16.65678 2.58177,7.95096 4.71943,10.73559 10.62308,17.44496 5.9486,3.83842 8.28285,3.62529 16.24677,5.82126 0.069,-0.124 0.135,-0.242 0.202,-0.363 z"
   clip-path="url(#XMLID_00000029728806880454236400000000900009255084311484_)"
   id="path27"
   sodipodi:nodetypes="ccccsccc" />
				<path
   style="display:inline;opacity:0.5;fill:#ffffff"
   d="m 217.213,312.904 -1.776,-11.644 c -2.071,-2.683 -4.678,-6.297 -7.664,-10.963 -7.535,-11.773 -13.186,-16.953 -13.186,-16.953 0,0 -4.72895,4.1316 -4.72895,17.7886 0,0 7.41791,15.58773 11.03734,17.79996 5.5632,3.40028 16.11561,4.33444 16.11561,4.33444 0.069,-0.124 0.135,-0.242 0.202,-0.363 z"
   clip-path="url(#XMLID_00000029728806880454236400000000900009255084311484_)"
   id="path28"
   sodipodi:nodetypes="cccccscc" />
				
					
				
					<path
   id="use29"
   d="m 194.587,273.344 c 0,0 -5.18,11.302 -5.18,24.959 0,13.657 7.064,27.785 9.89,34.378 2.826,6.593 9.419,15.07 9.419,15.07 0,0 2.37269,-13.01908 6.61169,-21.49608 4.238,-8.477 5.16231,-19.00392 5.16231,-19.00392 0,0 -5.18,-5.18 -12.715,-16.953 -7.537,-11.774 -13.188,-16.954 -13.188,-16.954 z"
   style="fill:none;stroke:#263238;stroke-linecap:round;stroke-linejoin:round;stroke-miterlimit:10"
   sodipodi:nodetypes="cssccccc" />
			</g>
			<g
   id="g34"
   style="display:inline">
				<path
   style="fill:none;stroke:#263238;stroke-linecap:round;stroke-linejoin:round;stroke-miterlimit:10"
   d="m 170.10424,298.57842 c 0,0 2.30576,-18.00642 17.85676,-23.62142"
   id="path30"
   sodipodi:nodetypes="cc" />
				<path
   style="fill:none;stroke:#263238;stroke-linecap:round;stroke-linejoin:round;stroke-miterlimit:10"
   d="m 125.35854,324.60389 c 0,0 6.97265,12.65613 8.70065,30.79813"
   id="path31"
   sodipodi:nodetypes="cc" />
				<path
   style="fill:none;stroke:#263238;stroke-linecap:round;stroke-linejoin:round;stroke-miterlimit:10"
   d="m 139.9194,349.39205 c 0,0 2.2526,19.73395 2.2526,33.55695 0,13.823 2.16,23.327 2.16,23.327"
   id="path32"
   sodipodi:nodetypes="csc" />
				<path
   style="fill:none;stroke:#263238;stroke-linecap:round;stroke-linejoin:round;stroke-miterlimit:10"
   d="m 141.74,376.902 c 0,0 3.11922,-4.93002 2.68722,-21.77702"
   id="path33"
   sodipodi:nodetypes="cc" />
				<path
   style="fill:none;stroke:#263238;stroke-linecap:round;stroke-linejoin:round;stroke-miterlimit:10"
   d="m 257.89161,346.40493 c 0,0 3.32531,14.67256 6.52939,30.49707 3.81935,18.86328 4.752,28.51 4.752,28.51"
   id="path34"
   sodipodi:nodetypes="csc" />
			</g>
		</g>
		<g
   id="g39"
   style="display:inline">
			<path
   style="fill:#ffffff;stroke:#263238;stroke-linecap:round;stroke-linejoin:round;stroke-miterlimit:10"
   d="m 189.637,379.194 c 0,0 -9.143,18.624 -10.497,21.333 -1.354,2.709 -3.386,7.449 -3.386,7.449 h 16.254 c 0,0 9.143,-6.095 10.158,-6.434 1.016,-0.339 6.772,0 10.836,-1.693 4.063,-1.693 8.127,-6.095 12.19,-7.111 4.063,-1.016 9.481,-2.709 11.174,-2.709 1.693,0 7.45,1.693 11.174,1.693 3.725,0 8.465,-3.725 5.418,-5.418 -3.048,-1.693 -5.418,-0.677 -9.481,-2.709 -4.063,-2.032 -5.418,-2.709 -9.481,-2.032 -4.063,0.677 -7.45,-1.693 -17.269,-3.725 -9.821,-2.03 -20.995,-2.707 -27.09,1.356 z"
   id="path35" />
			<path
   style="fill:#ffffff;stroke:#263238;stroke-linecap:round;stroke-linejoin:round;stroke-miterlimit:10"
   d="m 218,368.79 c 0,0 5.326,-4.542 9.711,-2.35 4.386,2.193 2.35,16.29 3.446,21.928 1.096,5.639 2.35,8.615 -0.47,8.928 -2.819,0.313 -3.916,-1.88 -6.109,-6.892 C 222.386,385.393 218,368.79 218,368.79 Z"
   id="path36" />
			<path
   style="fill:#ffffff;stroke:#263238;stroke-linecap:round;stroke-linejoin:round;stroke-miterlimit:10"
   d="m 205,371.609 c 0,0 7.048,-6.265 10.181,-6.265 3.133,0 5.639,11.121 7.988,15.976 2.349,4.855 5.795,10.651 4.386,12.217 -1.41,1.566 -4.386,2.193 -6.892,-0.47 -2.506,-2.663 -7.988,-14.41 -9.555,-16.29 -1.566,-1.878 -6.108,-5.168 -6.108,-5.168 z"
   id="path37" />
			<path
   style="fill:#ffffff;stroke:#263238;stroke-linecap:round;stroke-linejoin:round;stroke-miterlimit:10"
   d="m 197.795,373.802 c 0,0 0.47,-2.193 7.205,-2.193 6.735,0 12.53,9.398 16.603,11.591 4.072,2.193 2.819,3.133 -0.157,4.542 -2.976,1.409 -4.855,-0.157 -10.808,-3.446 -5.951,-3.289 -12.843,-10.494 -12.843,-10.494 z"
   id="path38" />
			<path
   style="fill:#ffffff;stroke:#263238;stroke-linecap:round;stroke-linejoin:round;stroke-miterlimit:10"
   d="m 190.314,389.353 4.741,-7.788 c 0,0 3.725,0.677 6.095,2.709 2.37,2.032 6.772,6.095 12.19,6.095 5.418,0 7.111,-1.693 5.079,-3.386 -2.032,-1.693 -8.127,-4.741 -12.529,-7.788 -4.402,-3.048 -7.788,-8.127 -11.174,-7.111 -3.386,1.016 -5.756,7.449 -9.481,15.915"
   id="path39" />
		</g>
		<g
   id="g60"
   style="display:inline">
			<g
   id="g46"
   style="display:inline">
				<g
   id="g41">
					<defs
   id="defs39">
						<path
   id="XMLID_2_"
   d="m 266.088,240.16 c 0,0 -1.308,19.354 -3.4,26.154 -2.092,6.8 -4.969,27.724 -11.246,36.878 -6.277,9.154 -14.385,17 -23.539,17.523 -9.154,0.523 -21.447,-15.693 -28.508,-26.154 -7.062,-10.462 -7.846,-20.923 -10.2,-31.124 -2.354,-10.2 -2.877,-21.97 0.785,-31.124 3.662,-9.154 21.97,-20.4 37.401,-19.093 15.431,1.308 34.785,9.416 38.708,15.431 3.922,6.016 -10e-4,11.509 -10e-4,11.509 z" />
					</defs>
					<use
   xlink:href="#XMLID_2_"
   style="overflow:visible;fill:#ffffff"
   id="use39" />
					<clipPath
   id="XMLID_00000074426099047953036270000001359340749598081701_">
						<use
   xlink:href="#XMLID_2_"
   style="overflow:visible"
   id="use40" />
					</clipPath>
					<path
   style="fill:#9a9dd5;fill-opacity:1"
   d="m 189.979,232.314 c -3.662,9.154 -3.138,20.923 -0.785,31.124 2.354,10.2 3.139,20.662 10.2,31.124 7.062,10.462 19.354,26.677 28.508,26.154 3.676,-0.21 7.18,-1.615 10.467,-3.798 -1.494,0.148 -3.052,0.301 -4.654,0.453 -9.595,0.914 -14.164,-5.483 -20.103,-17.819 -5.94,-12.336 -2.284,-19.646 -4.569,-21.931 -2.284,-2.285 -2.284,-18.733 -2.284,-18.733 0,0 1.827,-7.31 2.741,-10.052 0.914,-2.741 10.508,-6.396 10.508,-6.396 0,0 0,6.853 6.586,6.351 6.586,-0.503 11.233,-7.721 11.233,-7.721 l -0.918,-26.326 c -3.23,-0.729 -6.458,-1.263 -9.53,-1.523 -15.431,-1.308 -33.739,9.939 -37.4,19.093 z"
   clip-path="url(#XMLID_00000074426099047953036270000001359340749598081701_)"
   id="path40" />
					<path
   style="opacity:0.5;fill:#ffffff"
   d="m 189.979,232.314 c -3.662,9.154 -3.138,20.923 -0.785,31.124 2.354,10.2 3.139,20.662 10.2,31.124 7.062,10.462 19.354,26.677 28.508,26.154 3.676,-0.21 7.18,-1.615 10.467,-3.798 -1.494,0.148 -3.052,0.301 -4.654,0.453 -9.595,0.914 -14.164,-5.483 -20.103,-17.819 -5.94,-12.336 -2.284,-19.646 -4.569,-21.931 -2.284,-2.285 -2.284,-18.733 -2.284,-18.733 0,0 1.827,-7.31 2.741,-10.052 0.914,-2.741 10.508,-6.396 10.508,-6.396 0,0 0,6.853 6.586,6.351 6.586,-0.503 11.233,-7.721 11.233,-7.721 l -0.918,-26.326 c -3.23,-0.729 -6.458,-1.263 -9.53,-1.523 -15.431,-1.308 -33.739,9.939 -37.4,19.093 z"
   clip-path="url(#XMLID_00000074426099047953036270000001359340749598081701_)"
   id="path41" />
					
						<use
   xlink:href="#XMLID_2_"
   style="overflow:visible;fill:none;stroke:#263238;stroke-linecap:round;stroke-linejoin:round;stroke-miterlimit:10"
   id="use41" />
				</g>
				<g
   id="g45"
   style="display:inline">
					<path
   style="display:inline;fill:none;stroke:#263238;stroke-linecap:round;stroke-linejoin:round;stroke-miterlimit:10"
   d="m 239.672,266.053 c 0,0 -0.99506,12.21497 5.80494,15.61497 0,0 0.77309,1.91772 -0.0109,3.74872 -0.785,1.831 -4.27433,3.71014 -8.45933,0.57114"
   id="path42"
   sodipodi:nodetypes="cccc" />
					<g
   id="g43"
   style="display:inline">
						<path
   style="fill:#263238"
   d="m 245.451,254.719 c -0.432,0 -0.861,-0.186 -1.158,-0.545 -0.527,-0.639 -0.437,-1.584 0.202,-2.111 0.24,-0.2 6.009,-4.847 15.162,-1.629 0.782,0.274 1.192,1.131 0.918,1.912 -0.274,0.781 -1.132,1.193 -1.912,0.918 -7.573,-2.659 -12.211,1.074 -12.258,1.111 -0.279,0.231 -0.617,0.344 -0.954,0.344 z"
   id="path43" />
					</g>
					<g
   id="g44"
   style="display:inline">
						<path
   style="fill:#263238"
   d="m 229.686,252.892 c -0.516,0 -1.018,-0.267 -1.296,-0.743 -0.158,-0.268 -3.758,-6.19 -10.838,-5.212 -0.82,0.113 -1.578,-0.459 -1.692,-1.28 -0.114,-0.82 0.459,-1.578 1.28,-1.692 9.119,-1.26 13.653,6.349 13.842,6.674 0.416,0.716 0.172,1.634 -0.544,2.05 -0.237,0.137 -0.496,0.203 -0.752,0.203 z"
   id="path44" />
					</g>
					
						<line
   style="display:inline;fill:none;stroke:#263238;stroke-linecap:round;stroke-linejoin:round;stroke-miterlimit:10"
   x1="234.145"
   y1="299.245"
   x2="238.384"
   y2="299.245"
   id="line44" />
				</g>
			</g>
			<g
   id="g51"
   style="display:inline">
				<defs
   id="defs46">
					<path
   id="XMLID_1_"
   d="m 195.733,201.975 c 0,0 -17,5.492 -18.308,12.293 -1.308,6.8 7.323,30.6 7.062,33.477 -0.261,2.877 -2.877,5.231 0,9.415 2.877,4.185 8.108,10.462 10.2,7.062 2.092,-3.4 -0.785,-8.369 2.615,-10.462 3.4,-2.092 8.108,-5.492 5.492,-9.939 -2.615,-4.446 -1.308,-10.985 4.185,-11.77 5.492,-0.785 10.2,-4.446 7.323,-0.262 -2.877,4.185 -11.246,14.385 -6.8,15.17 4.446,0.785 21.969,-10.985 21.969,-10.985 0,0 -6.015,12.031 -2.877,12.816 3.139,0.785 27.724,-15.431 27.724,-15.431 0,0 11.769,15.431 14.123,14.385 2.354,-1.046 0.785,-9.677 0.785,-9.677 0,0 1.831,11.508 5.492,12.031 3.661,0.523 8.631,-5.754 7.062,-9.677 -1.569,-3.923 -4.185,-9.415 -4.185,-9.415 0,0 5.231,-1.308 7.323,-3.662 2.092,-2.354 1.831,-2.615 -2.615,-3.4 -4.446,-0.785 -7.846,-5.754 -12.031,-10.2 -4.185,-4.446 -10.985,-10.462 -10.985,-10.462 0,0 7.846,3.4 3.662,-0.523 -4.185,-3.923 -26.416,-12.816 -38.447,-12.816 -12.031,0 -16.477,6.277 -16.477,6.277 0,0 2.092,-7.846 -0.262,-6.8 -2.354,1.046 -4.969,7.323 -4.969,7.323 0,0 -5.492,-1.569 -8.369,0.261 -2.877,1.831 -3.662,3.662 -1.308,3.662 2.354,0 3.923,0.523 3.923,0.523 z" />
				</defs>
				<path
   id="use46"
   d="m 195.733,201.975 c 0,0 -12.91194,6.06224 -14.21994,12.86324 -1.308,6.8 3.23494,30.02976 2.97394,32.90676 -0.261,2.877 -1.24954,5.22754 0,9.415 2.877,4.185 8.108,10.462 10.2,7.062 2.092,-3.4 0.87089,-12.19329 4.27089,-14.28629 2.75992,-2.95486 4.7287,-2.07577 3.83611,-6.11471 -2.60312,-14.71025 14.8858,-15.79426 25.82414,-16.20509 0,0 13.69795,12.10025 9.65928,19.85454 10.99799,-1.27649 10.875,-17.54642 10.875,-17.54642 11.15544,2.78975 16.05871,12.03324 18.00383,22.00807 3.25512,-2.7805 2.06975,-13.8651 2.06975,-13.8651 0,0 4.44458,5.38502 6.03071,15.00005 5.71751,-3.58919 4.00854,-13.22683 2.92329,-16.94087 -1.57189,-5.37945 -1.75997,-5.94192 -1.75997,-5.94192 1.26518,-3.88904 4.3796,0.59205 9.13995,-4.42455 -7.03571,-0.41932 -10.05023,-6.69733 -14.23523,-11.14333 -4.185,-4.446 -10.89121,-9.63232 -10.89121,-9.63232 0,0 0.67975,-2.22115 6.78561,1.27285 C 260.52462,197.82247 236.533,189.943 224.502,189.943 c -12.031,0 -16.477,6.277 -16.477,6.277 0,0 -2.36256,1.92338 -0.27989,-4.39524 -3.66083,2.63798 -4.95111,4.91824 -4.95111,4.91824 -9.37691,-2.52014 -13.94994,4.73298 -12.68403,4.28373 7.32426,-2.59926 6.93003,0.16227 6.93003,0.16227 z"
   style="display:inline;fill:#263238"
   sodipodi:nodetypes="ccscsccccccccsccsccscccscc" />
				<clipPath
   id="XMLID_00000162329790408090856720000004631751256176906149_">
					<use
   xlink:href="#XMLID_1_"
   style="overflow:visible"
   id="use47" />
				</clipPath>
				<path
   style="display:inline;opacity:0.2;fill:#ffffff"
   d="m 194.687,264.222 c 2.092,-3.4 -0.785,-8.369 2.615,-10.462 0.99823,-4.66681 8.108,-5.492 5.492,-9.939 -0.6616,-7.55801 0.93309,-8.05523 4.185,-11.77 4.135,-0.591 9.06722,-3.0931 10.50712,-3.37309 3.57859,-0.57576 7.9934,0.22167 -2.33012,-2.25691 -4.93285,-1.18433 -13.29044,1.06797 -16.42874,9.53879 -1.76241,4.75705 0.78572,8.19667 -3.10128,9.65367 -3.887,1.458 -4.03454,3.73035 -4.03454,7.61735 0,3.325 -1.81544,8.26019 -2.27144,9.78919 2.129,2.014 4.22,3.066 5.367,1.202 z"
   id="path47"
   sodipodi:nodetypes="cccccsscscc" /><path
   style="display:inline;opacity:0.2;fill:#ffffff"
   d="m 273.05159,244.96901 c 1.06418,3.16292 0.90007,2.7563 2.46882,8.01626 1.90825,-1.65234 3.83792,-4.9099 3.62604,-12.79054 -2.55403,6.67271 -2.29113,9.8147 -6.09486,4.77428 z"
   id="path48"
   sodipodi:nodetypes="cccc" /><path
   style="display:inline;opacity:0.2;fill:#ffffff"
   d="m 269.06901,238.61714 c -1.56178,8.48727 -0.84035,7.83151 -4.22345,5.69473 0.39508,1.92231 2.00188,5.69636 2.332,7.96118 0,0 3.26194,-3.28326 1.89145,-13.65591 z"
   id="path49"
   sodipodi:nodetypes="cccc" /><path
   style="display:inline;opacity:0.2;fill:#ffffff"
   d="m 238.013,248.00789 c 6.32262,-2.06179 10.11204,-4.44975 11.20925,-17.92812 -5.96391,13.55455 -9.84695,11.4906 -10.60402,11.84001 0.63727,2.91156 0.54897,2.62739 -0.60523,6.08811 z"
   id="path50"
   sodipodi:nodetypes="cccc" />
				
					
			<path
   id="path73"
   d="m 195.733,201.975 c 0,0 -12.91194,6.06224 -14.21994,12.86324 -1.308,6.8 3.23494,30.02976 2.97394,32.90676 -0.261,2.877 -1.24954,5.22754 0,9.415 2.877,4.185 8.108,10.462 10.2,7.062 2.092,-3.4 0.87089,-12.19329 4.27089,-14.28629 2.75992,-2.95486 4.7287,-2.07577 3.83611,-6.11471 -2.60312,-14.71025 14.8858,-15.79426 25.82414,-16.20509 0,0 13.69795,12.10025 9.65928,19.85454 10.99799,-1.27649 10.875,-17.54642 10.875,-17.54642 11.15544,2.78975 16.05871,12.03324 18.00383,22.00807 3.25512,-2.7805 2.06975,-13.8651 2.06975,-13.8651 0,0 4.44458,5.38502 6.03071,15.00005 5.71751,-3.58919 4.00854,-13.22683 2.92329,-16.94087 -1.57189,-5.37945 -1.75997,-5.94192 -1.75997,-5.94192 1.26518,-3.88904 4.3796,0.59205 9.13995,-4.42455 -7.03571,-0.41932 -10.05023,-6.69733 -14.23523,-11.14333 -4.185,-4.446 -10.89121,-9.63232 -10.89121,-9.63232 0,0 0.67975,-2.22115 6.78561,1.27285 C 260.52462,197.82247 236.533,189.943 224.502,189.943 c -12.031,0 -16.477,6.277 -16.477,6.277 0,0 -2.36256,1.92338 -0.27989,-4.39524 -3.66083,2.63798 -4.95111,4.91824 -4.95111,4.91824 -9.37691,-2.52014 -13.94994,4.73298 -12.68403,4.28373 7.32426,-2.59926 6.93003,0.16227 6.93003,0.16227 z"
   style="display:inline;fill:none;stroke:#263238"
   sodipodi:nodetypes="ccscsccccccccsccsccscccscc" /></g>
			<g
   id="g56"
   style="display:inline">
				<path
   style="display:inline;fill:#263238"
   d="m 234.387,255.723 c 0,0 -3.819,-4.112 -14.1,-3.819 -10.281,0.294 -17.625,2.056 -19.681,3.231 -2.056,1.175 -0.881,2.644 -0.294,4.7 0.588,2.056 2.056,11.75 4.406,15.568 2.35,3.819 8.519,7.05 12.631,7.05 4.112,0 6.462,-0.881 10.869,-4.112 4.406,-3.231 7.344,-14.981 7.637,-15.862 0.294,-0.881 0,-2.644 2.938,-1.762 2.937,0.881 3.231,13.806 4.112,16.45 0.881,2.644 6.756,6.169 11.456,6.169 4.7,0 9.106,-2.35 12.925,-9.106 3.819,-6.756 2.644,-13.219 2.644,-13.219 0,0 4.112,-3.231 0.881,-4.406 -3.231,-1.175 -14.341,-4.261 -21.444,-2.056 -8.517,2.642 -12.924,2.055 -14.98,1.174 z"
   id="path51" />
				<path
   style="fill:#263238"
   d="m 202.075,255.429 -19.681,2.644 v 2.35 l 19.387,-1.175 c 0,0 -1.762,-2.938 0.294,-3.819 z"
   id="path52" />
				<path
   style="display:inline;fill:#9a9dd5;fill-opacity:1"
   d="m 254.354,280.47 c -5.769,-0.006 -8.705,-3.058 -9.345,-8.371 -0.765,-6.354 -1.454,-10.793 -3.453,-12.917 2.566,-0.271 5.467,-0.906 8.661,-1.897 1.38,-0.428 3.088,-0.645 5.076,-0.645 4.775,0 9.968,1.244 12.871,2.114 -0.004,0.004 -1.35,1.079 -1.35,1.079 l 0.297,1.691 c 0.007,0.04 0.905,5.593 -2.318,11.296 -3.878,6.856 -7.811,7.65 -10.439,7.65 z m -37.004,-0.882 c -3.012,0 -8.307,-2.624 -10.192,-5.686 -1.505,-2.447 -2.766,-8.619 -3.445,-11.934 -0.273,-1.34 -0.471,-2.308 -0.646,-2.92 -0.14,-0.488 -0.305,-0.949 -0.465,-1.384 -0.029,-0.08 -0.06,-0.167 -0.092,-0.255 2.313,-0.944 8.847,-2.383 17.858,-2.64 0.327,-0.009 0.646,-0.013 0.96,-0.013 7.894,0 10.932,2.889 10.958,2.918 l 0.414,0.444 0.557,0.239 c 0.369,0.158 0.761,0.297 1.173,0.417 -0.567,0.576 -1.037,1.425 -1.273,2.669 l -0.038,0.191 c -0.018,0.048 -0.088,0.29 -0.189,0.644 -2.923,10.317 -5.454,13.055 -6.406,13.753 -4.149,3.043 -5.931,3.557 -9.174,3.557 z"
   id="path53" />
			<path
   id="rect71"
   style="opacity:1;fill:#ffffff"
   d="m 221.32812,254.75586 c -0.31399,0 -0.63393,0.005 -0.96093,0.0137 -2.25681,0.0644 -4.35672,0.20237 -6.27539,0.38867 l -10.09961,8.13868 c 0.29667,1.42625 0.64353,3.03996 1.07031,4.70898 l 16.43359,-13.24609 c -0.0577,-3.2e-4 -0.10976,-0.004 -0.16797,-0.004 z" /><path
   id="rect71-6"
   style="display:inline;fill:#ffffff"
   d="m 223.9707,254.875 -18.4375,14.85938 c 0.49194,1.69302 1.0392,3.2155 1.625,4.16796 0.0125,0.0203 0.0283,0.0403 0.041,0.0606 l 22.20117,-17.89453 c -1.30417,-0.50248 -3.08247,-0.98022 -5.42969,-1.19336 z" /><path
   id="path71"
   style="opacity:1;fill:#ffffff;stroke-width:0.947363"
   d="m 255.29297,256.64062 c -1.73638,0 -3.2443,0.17487 -4.52149,0.50196 l -7.1582,6.42773 c 0.35537,1.36403 0.64223,2.95389 0.90234,4.75977 l 12.92383,-11.60547 c -0.71902,-0.0496 -1.43703,-0.084 -2.14648,-0.084 z" /><path
   id="path72"
   style="display:inline;fill:#ffffff;stroke-width:0.947363"
   d="m 259.55859,256.93164 -14.78515,13.2793 c 0.0787,0.61316 0.15756,1.23447 0.23633,1.88867 0.12658,1.05088 0.34585,2.00906 0.65625,2.87695 l 19.0664,-17.12109 c -1.57071,-0.36191 -3.33788,-0.6961 -5.17383,-0.92383 z" /></g>
			<g
   id="g59"
   style="display:inline">
				<g
   id="g58">
					<defs
   id="defs56">
						<path
   id="XMLID_3_"
   d="m 195.733,269.714 c 0,0 -6.277,-14.646 -11.769,-14.646 -5.492,0 -5.231,12.292 -1.831,18.831 3.4,6.539 10.723,9.154 12.816,5.231" />
					</defs>
					<use
   xlink:href="#XMLID_3_"
   style="overflow:visible;fill:#ffffff"
   id="use56" />
					<clipPath
   id="XMLID_00000170263886913809216020000003682947765857909155_">
						<use
   xlink:href="#XMLID_3_"
   style="overflow:visible"
   id="use57" />
					</clipPath>
					<path
   style="fill:#9a9dd5;fill-opacity:1"
   d="m 195.733,269.714 c 0,0 -6.277,-14.646 -11.769,-14.646 -5.492,0 -5.231,12.292 -1.831,18.831 3.4,6.539 10.723,9.154 12.816,5.231"
   clip-path="url(#XMLID_00000170263886913809216020000003682947765857909155_)"
   id="path57" />
					<path
   style="opacity:0.5;fill:#ffffff"
   d="m 195.733,269.714 c 0,0 -6.277,-14.646 -11.769,-14.646 -5.492,0 -5.231,12.292 -1.831,18.831 3.4,6.539 10.723,9.154 12.816,5.231"
   clip-path="url(#XMLID_00000170263886913809216020000003682947765857909155_)"
   id="path58" />
					
						<use
   xlink:href="#XMLID_3_"
   style="overflow:visible;fill:none;stroke:#263238;stroke-linecap:round;stroke-linejoin:round;stroke-miterlimit:10"
   id="use58" />
				</g>
				<path
   style="fill:none;stroke:#263238;stroke-linecap:round;stroke-linejoin:round;stroke-miterlimit:10"
   d="m 182.139,264.044 c 0,0 -0.796,-6.37 2.23,-5.255 3.026,1.115 6.53,11.148 6.53,11.148 0,0 -2.548,-2.707 -2.23,-0.159 0.319,2.548 2.548,2.707 2.548,2.707"
   id="path59" />
			</g>
		</g>
	</g>
</g><g
     id="Device">
	<g
   id="g67">
		<polygon
   style="display:inline;fill:#263238;stroke:#263238;stroke-linecap:round;stroke-linejoin:round;stroke-miterlimit:10"
   points="281.539,315.13 260.373,400.228 384.349,400.228 405.516,315.13 "
   id="polygon61" />
		<g
   id="g66">
			
				<rect
   x="198.16901"
   y="400.228"
   style="fill:#263238;stroke:#263238;stroke-linecap:round;stroke-linejoin:round;stroke-miterlimit:10"
   width="184.884"
   height="6.0479999"
   id="rect61" />
			
				<rect
   x="260.37299"
   y="400.228"
   style="fill:#9a9dd5;fill-opacity:1;stroke:#263238;stroke-linecap:round;stroke-linejoin:round;stroke-miterlimit:10"
   width="123.976"
   height="6.0479999"
   id="rect62" />
			<polygon
   style="display:inline;fill:#9a9dd5;fill-opacity:1;stroke:#263238;stroke-linecap:round;stroke-linejoin:round;stroke-miterlimit:10"
   points="282.91,315.13 261.743,400.228 385.719,400.228 406.886,315.13 "
   id="polygon62" />
			<g
   id="g65">
				<ellipse
   style="display:none;fill:#263238"
   cx="333.60599"
   cy="359.30399"
   rx="17.677999"
   ry="17.51"
   id="ellipse62" />
				<g
   id="g64">
					<path
   style="fill:#263238;fill-opacity:1"
   d="m 319.235,361.994 c -0.371,-0.169 -0.637,-0.459 -0.796,-0.87 -0.159,-0.411 -0.153,-0.839 0.02,-1.285 0.172,-0.446 0.516,-0.78 1.031,-1.002 l 7.495,-3.01 c 0.248,-0.104 0.508,0.005 0.782,0.327 0.273,0.323 0.417,0.668 0.43,1.036 0.013,0.368 -0.156,0.657 -0.508,0.865 l -6.274,2.443 6.293,2.531 c 0.268,0.182 0.4,0.456 0.396,0.821 -0.004,0.365 -0.124,0.71 -0.361,1.036 -0.238,0.326 -0.481,0.437 -0.728,0.332 z"
   id="path62" />
					<path
   style="display:inline;fill:#263238;fill-opacity:1"
   d="m 330.928,366.186 c -0.212,-0.169 -0.318,-0.398 -0.318,-0.684 0,-0.15 0.082,-0.505 0.245,-1.065 l 4.153,-12.029 c 0.26,-0.899 0.632,-1.348 1.114,-1.348 0.28,0 0.518,0.086 0.713,0.259 0.195,0.173 0.294,0.422 0.294,0.747 0,0.228 -0.075,0.56 -0.225,0.997 l -4.359,12.693 c -0.144,0.456 -0.446,0.684 -0.909,0.684 -0.26,0 -0.496,-0.085 -0.708,-0.254 z"
   id="path63" />
					<path
   style="fill:#263238;fill-opacity:1"
   d="m 339.098,364.887 c -0.238,-0.326 -0.358,-0.671 -0.361,-1.036 -0.004,-0.365 0.128,-0.638 0.396,-0.821 l 6.293,-2.531 -6.274,-2.443 c -0.352,-0.208 -0.521,-0.497 -0.508,-0.865 0.013,-0.368 0.156,-0.713 0.43,-1.036 0.274,-0.322 0.534,-0.431 0.782,-0.327 l 7.495,3.01 c 0.391,0.169 0.686,0.41 0.885,0.723 0.198,0.313 0.293,0.626 0.283,0.938 -0.01,0.313 -0.094,0.609 -0.255,0.889 -0.159,0.28 -0.379,0.482 -0.659,0.606 l -7.779,3.225 c -0.248,0.104 -0.491,-0.006 -0.728,-0.332 z"
   id="path64" />
				</g>
			</g>
		</g>
	</g>
</g><g
     id="Table"
     style="display:inline">
	
		<rect
   x="51.667"
   y="404.94299"
   style="fill:#ffffff;stroke:#263238;stroke-linecap:round;stroke-linejoin:round;stroke-miterlimit:10"
   width="401.33301"
   height="6"
   id="rect67" />
</g></g>
</svg>
